<svg xmlns="http://www.w3.org/2000/svg" width="1em" height="1em" viewBox="0 0 64 64">
  <path d="M4.836,4.836V59.164H59.164V4.836H4.836M0,0H64V64H0Z" fill="#fff" />
  <g transform="translate(9.801 7.875)">
    <path d="M23.1,44.84a7.874,7.874,0,0,1-3.127-3.353A11.34,11.34,0,0,1,18.861,36.3V22.4h4.321V36.554a5.863,5.863,0,0,0,1.209,3.853,4.2,4.2,0,0,0,3.434,1.467,4.2,4.2,0,0,0,3.434-1.467,5.863,5.863,0,0,0,1.209-3.853V22.4h4.32V36.3a11.172,11.172,0,0,1-1.1,5.062,8.158,8.158,0,0,1-3.127,3.418A9,9,0,0,1,27.825,46,9.3,9.3,0,0,1,23.1,44.84Zm17.2.645V34.007h2.466a3.672,3.672,0,0,1,1.193.177,2.292,2.292,0,0,1,.935.629,2.46,2.46,0,0,1,.58,1.056,6.621,6.621,0,0,1,.161,1.636,8.148,8.148,0,0,1-.088,1.306,2.734,2.734,0,0,1-.379,1,2.4,2.4,0,0,1-.9.879A3.041,3.041,0,0,1,42.785,41h-.838v4.481Zm1.645-6.029h.79a1.68,1.68,0,0,0,.774-.145.912.912,0,0,0,.4-.4,1.475,1.475,0,0,0,.153-.6q.024-.355.024-.79,0-.4-.016-.766a1.658,1.658,0,0,0-.145-.637.915.915,0,0,0-.387-.419,1.536,1.536,0,0,0-.742-.145h-.854ZM0,45.485V41.1L11.7,26.527H.516V22.4h16.25v4.385L5.191,41.358h11.7v4.127ZM40.3,28.559V17.081h2.466a3.672,3.672,0,0,1,1.193.177,2.292,2.292,0,0,1,.935.629,2.46,2.46,0,0,1,.58,1.056,6.617,6.617,0,0,1,.161,1.636,8.153,8.153,0,0,1-.088,1.306,2.731,2.731,0,0,1-.379,1,2.4,2.4,0,0,1-.9.879,3.038,3.038,0,0,1-1.483.314h-.838v4.482Zm1.645-6.029h.79a1.679,1.679,0,0,0,.774-.145.911.911,0,0,0,.4-.4,1.476,1.476,0,0,0,.153-.6q.024-.355.024-.79,0-.4-.016-.766a1.66,1.66,0,0,0-.145-.637.914.914,0,0,0-.387-.419,1.536,1.536,0,0,0-.742-.145h-.854ZM17.524,20.014V10.17l.223-3.319h-.223L12.448,20.014H9.52L4.416,6.851H4.193l.223,3.319v9.845H.707V.046H5.56l5.3,14.028h.223L16.381.046h4.881V20.014Zm6.545-.161V0H36.658V3.549H27.812v4.6H35.77V11.7H27.812v4.6h8.845v3.549Zm20.344-8.222-.484-2.466H41.689l-.484,2.466H39.561L42.124.153h1.37l2.563,11.478ZM41.979,7.617h1.644l-.806-4.159h-.032Z" fill="#fff" />
  </g>
</svg>